<?xml version="1.0" encoding="UTF-8" standalone="no"?>
<svg
   version="1.1"
   viewBox="0 0 4 4.6999996"
   id="svg8"
   sodipodi:docname="logo-color-transparent-pin.svg"
   inkscape:version="1.3.2 (091e20e, 2023-11-25, custom)"
   width="4"
   height="4.6999998"
   xmlns:inkscape="http://www.inkscape.org/namespaces/inkscape"
   xmlns:sodipodi="http://sodipodi.sourceforge.net/DTD/sodipodi-0.dtd"
   xmlns="http://www.w3.org/2000/svg"
   xmlns:svg="http://www.w3.org/2000/svg">
  <sodipodi:namedview
     id="namedview8"
     pagecolor="#ffffff"
     bordercolor="#000000"
     borderopacity="0.25"
     inkscape:showpageshadow="2"
     inkscape:pageopacity="0.0"
     inkscape:pagecheckerboard="0"
     inkscape:deskcolor="#d1d1d1"
     inkscape:zoom="48.468347"
     inkscape:cx="9.2534618"
     inkscape:cy="3.0844873"
     inkscape:window-width="1920"
     inkscape:window-height="1017"
     inkscape:window-x="-8"
     inkscape:window-y="1072"
     inkscape:window-maximized="1"
     inkscape:current-layer="svg8" />
  <g
     clip-path="url(#SvgjsClipPath1204)"
     id="g6"
     transform="matrix(1.060807,0,0,1.060807,4.4243228,0.6063768)">
    <g
       clip-path="url(#SvgjsClipPath12021ccccb25-c3a9-4fbd-b103-ada21a619da8)"
       id="g3">
      <path
         d="M -2.071354,3.3905219 -1.97378,3.2828753 C -1.64292,2.9348519 -1.3338708,2.566726 -1.0483972,2.1806 -0.58250781,1.5392066 -0.69158601,0.64680164 -1.2982459,0.1365053 -1.9049058,-0.37379104 -2.8028064,-0.32841359 -3.3549288,0.24044444 v 0 C -3.6066947,0.49097421 -3.7614903,0.82264732 -3.79181,1.1765286 c -0.030403,0.3569787 0.065145,0.7133349 0.2700606,1.007219 0.2858829,0.3867581 0.595351,0.7555129 0.9266415,1.1041638 l 0.095686,0.1051285 c 0.027016,0.029924 0.059769,0.054115 0.096315,0.071135 0.037153,0.016061 0.077244,0.024208 0.1177187,0.023921 v 0 c 0.040425,4.305e-4 0.080503,-0.0075 0.1177187,-0.023292 0.036546,-0.01702 0.0693,-0.041211 0.096315,-0.071135 z m 0.37393,0.1441582 -0.097574,0.107017 c -0.124558,0.1396387 -0.3032773,0.2187891 -0.4903898,0.2171816 v 0 C -2.472353,3.8612987 -2.6511196,3.7822507 -2.775148,3.6423266 L -2.8714636,3.5371981 C -3.2137404,3.1771168 -3.5331094,2.7959343 -3.8276922,2.3958931 v 0 C -4.0826558,2.0313631 -4.20162,1.588923 -4.1638515,1.1456825 v 0 c 0.037746,-0.44151199 0.2309255,-0.8553089 0.5451573,-1.16774451 v 0 c 0.738107,-0.73274184 1.9291347,-0.73274184 2.6672418,0 v 0 C -0.30388748,0.62674942 -0.21575623,1.6468951 -0.74245446,2.3971521 -1.037171,2.7945385 -1.3560987,3.1733834 -1.697424,3.5315325 Z"
         fill="#588932"
         fill-rule="evenodd"
         id="path3" />
    </g>
    <g
       clip-path="url(#SvgjsClipPath12021ccccb25-c3a9-4fbd-b103-ada21a619da8)"
       id="g4">
      <path
         d="m -1.9737797,2.5079462 c 0.091279,-0.093797 0.1806699,-0.1888535 0.2637655,-0.2832803 0.083096,-0.094427 0.1617845,-0.1888536 0.2360669,-0.2933526 0.1297579,-0.1796253 0.1943772,-0.3981318 0.183188,-0.6194396 -0.00969,-0.2196033 -0.094592,-0.42919731 -0.2404735,-0.59362974 l -0.00504,-0.005666 C -1.8788983,0.301347 -2.4890798,0.24344861 -2.9029392,0.58289891 v 0 c -0.1806769,0.14591021 -0.3028874,0.35190317 -0.344343,0.58040999 -0.04163,0.2314562 3.131e-4,0.4701747 0.1183482,0.6735777 v 0 c 0.068599,0.1194056 0.1458145,0.2336502 0.2310309,0.3418249 0.088132,0.1133122 0.1819289,0.2209587 0.2788737,0.3229396 0.041134,0.044329 0.090813,0.079875 0.1460468,0.104499 0.055631,0.02327 0.1153319,0.035253 0.1756338,0.035253 0.060783,5.513e-4 0.1210873,-0.010782 0.1775224,-0.033364 0.055357,-0.023927 0.1054238,-0.058589 0.1473057,-0.1019809 z m 0.5445278,-0.037771 C -1.5199016,2.574045 -1.6130694,2.6722488 -1.7062371,2.7679346 -1.783026,2.8485268 -1.8753142,2.9127645 -1.9775568,2.9567882 -2.2927731,3.0890957 -2.6570191,3.0115272 -2.8909785,2.762269 -2.998625,2.6489569 -3.101865,2.5318677 -3.1950327,2.4122604 -3.2905091,2.2893527 -3.3773788,2.1599947 -3.4550211,2.0251106 -3.616339,1.7455917 -3.6734335,1.4179673 -3.6161762,1.1003577 -3.5103264,0.55329406 -3.0819809,0.12584494 -2.5346968,0.02114131 -1.9874126,-0.08356233 -1.4315363,0.15559045 -1.1312295,0.62495023 -0.83092268,1.09431 -0.84673496,1.6992419 -1.171152,2.152272 -1.249841,2.2586595 -1.3360842,2.365047 -1.4292519,2.4701752 Z"
         fill="#ee7913"
         fill-rule="evenodd"
         id="path4" />
    </g>
    <g
       clip-path="url(#SvgjsClipPath12021ccccb25-c3a9-4fbd-b103-ada21a619da8)"
       id="g5">
      <path
         d="m -2.2853881,1.6939874 c 0.1550957,-6.276e-4 0.2946922,-0.094197 0.3542082,-0.2374202 0.059516,-0.1432233 0.027345,-0.30817 -0.08163,-0.4185312 v 0 C -2.1359031,0.91491825 -2.3263465,0.88983458 -2.4771213,0.97688058 -2.627896,1.0639266 -2.7014014,1.2413944 -2.6563316,1.4095573 c 0.04507,0.1681628 0.1974753,0.2850837 0.371573,0.2850596 z m 0.5363441,0.1517123 c -0.1417423,0.1422354 -0.3342822,0.2221839 -0.535085,0.2221839 -0.2008029,0 -0.3933428,-0.079948 -0.5350851,-0.2221839 v 0 c -0.2955194,-0.2955193 -0.2955194,-0.7746508 0,-1.07017016 0.2955193,-0.29551934 0.7746508,-0.29551934 1.0701701,0 v 0 c 0.1422354,0.14174231 0.2221839,0.33428226 0.2221839,0.53508506 0,0.2008028 -0.079948,0.3933428 -0.2221839,0.5350851 z"
         fill="#93b023"
         fill-rule="evenodd"
         id="path5" />
    </g>
  </g>
  <defs
     id="defs8">
    <clipPath
       id="SvgjsClipPath1204">
      <path
         d="M -4.1714057,-0.57414392 H -0.4 V 3.8588787 h -3.7714057 z"
         id="path7" />
    </clipPath>
    <clipPath
       id="SvgjsClipPath12021ccccb25-c3a9-4fbd-b103-ada21a619da8">
      <path
         d="M -4.1714057,-0.57414392 H -0.4 V 3.8588787 h -3.7714057 z"
         id="path8" />
    </clipPath>
  </defs>
</svg>
