<svg xmlns="http://www.w3.org/2000/svg" version="1.1" xmlns:xlink="http://www.w3.org/1999/xlink" xmlns:svgjs="http://svgjs.dev/svgjs" viewBox="0 0 18.50692364578409 6.158066995899215"><g transform="matrix(1,0,0,1,5.0339278346111005,1.436666103301514)"><g><path d=" M 0.23463436055115167 0.01887862671101237 L 1.1145132126179704 0.01887862671101237 L 1.0342790490961686 0.3674589841964876 L 0.7996446885450169 0.3674589841964876 L 0.8367277052987908 0.2042937104798822 L 0.5737754046811209 0.2042937104798822 L 0.5191622345528356 0.4389280710310338 L 0.7639101451277438 0.4389280710310338 L 0.7180620516867141 0.6351309414919106 L 0.4733141411118059 0.6351309414919106 L 0.42207215432477285 0.8562805686780536 L 0.540063571268599 0.8562805686780536 L 0.4969124245005712 1.041021415778673 L 0.041128436763276585 1.041021415778673 L 0.08427958353130448 0.8562805686780536 L 0.1860893204371203 0.8562805686780536 L 0.3371183341252179 0.2042937104798822 L 0.19215745045137422 0.2042937104798822 L 0.23463436055115167 0.01887862671101237 M 1.2426181795855533 0.01887862671101237 L 2.1171031383063683 0.01887862671101237 L 2.036868974784567 0.3674589841964876 L 1.8008861408969141 0.3674589841964876 L 1.837969157650688 0.2042937104798822 L 1.5541155203172545 0.2042937104798822 L 1.5028735335302215 0.42409486432952426 L 1.7300912907306183 0.42409486432952426 L 1.684917433957839 0.6196234981221507 L 1.4576996767574424 0.6196234981221507 L 1.4024122699609065 0.8562805686780536 L 1.669409990588079 0.8562805686780536 L 1.7105384273513558 0.6749109049186863 L 1.9471954979072588 0.6749109049186863 L 1.8629159143759542 1.041021415778673 L 1.0187716057264085 1.041021415778673 L 1.0619227524944364 0.8562805686780536 L 1.166429436073254 0.8562805686780536 L 1.3174584497613515 0.2042937104798822 L 1.2001412694857758 0.2042937104798822 L 1.2426181795855533 0.01887862671101237 M 2.257344365302459 0.01887862671101237 L 3.1318293240232746 0.01887862671101237 L 3.0515951605014724 0.3674589841964876 L 2.81561232661382 0.3674589841964876 L 2.8526953433675937 0.2042937104798822 L 2.5688417060341604 0.2042937104798822 L 2.5175997192471273 0.42409486432952426 L 2.7448174764475244 0.42409486432952426 L 2.699643619674745 0.6196234981221507 L 2.4724258624743483 0.6196234981221507 L 2.4171384556778124 0.8562805686780536 L 2.684136176304985 0.8562805686780536 L 2.7252646130682616 0.6749109049186863 L 2.9619216836241646 0.6749109049186863 L 2.87764210009286 1.041021415778673 L 2.0334977914433146 1.041021415778673 L 2.0766489382113424 0.8562805686780536 L 2.1811556217901598 0.8562805686780536 L 2.3321846354782574 0.2042937104798822 L 2.2148674552026817 0.2042937104798822 L 2.257344365302459 0.01887862671101237 M 3.272070551019365 0.01887862671101237 L 3.7278545387566595 0.01887862671101237 L 3.685377628656882 0.2042937104798822 L 3.5822194184145655 0.2042937104798822 L 3.4305161680582175 0.8562805686780536 L 3.6240220918460926 0.8562805686780536 Q 3.648294611903108 0.8562805686780536 3.665487646943494 0.8404360069741683 Q 3.6826806819838804 0.8245914452702832 3.689423048666385 0.8009931618815178 L 3.7224606454106564 0.6654715915631803 L 3.9503526392793034 0.6654715915631803 L 3.864724582411498 1.041021415778673 L 3.0482239771602204 1.041021415778673 L 3.0913751239282483 0.8562805686780536 L 3.194533334170565 0.8562805686780536 L 3.3455623478586625 0.2042937104798822 L 3.2295936409195876 0.2042937104798822 L 3.272070551019365 0.01887862671101237 M 4.658975377610512 1.041021415778673 L 4.694709921027785 0.8872954554175736 Q 4.667740454297768 0.9304466021856015 4.6249264258638645 0.9712379206147529 Q 4.582112397429962 1.0120292390439043 4.519745505616797 1.0369759957691704 Q 4.457378613803631 1.0619227524944366 4.3919776569833395 1.0619227524944366 Q 4.303652653442532 1.0619227524944366 4.228138146598483 1.0305707474207912 Q 4.1526236397544345 0.999218742347146 4.096999114623774 0.9425828622141094 Q 4.041374589493112 0.8859469820810728 4.009685466085342 0.8067241735616466 Q 3.9779963426775717 0.7275013650422204 3.9779963426775717 0.631085521482408 Q 3.9779963426775717 0.5353439145908462 4.002268862734587 0.4514014493936669 Q 4.026541382791603 0.3674589841964876 4.069355411225506 0.29733837069844227 Q 4.112169439659408 0.22721775720039694 4.170490911463071 0.1719303504038613 Q 4.2288123832667335 0.11664294360732552 4.296910286760028 0.07854857185117592 Q 4.365008190253322 0.040454200095026316 4.440185578763245 0.020227100047513158 Q 4.515362967273169 0 4.592225947453718 0 Q 4.6448164075772524 0 4.694709921027785 0.011124905026132392 Q 4.744603434478317 0.022249810052264563 4.7880916995804705 0.0421397917656523 Q 4.831579964682623 0.06202977347904026 4.86562891642927 0.08866212187493239 Q 4.899677868175917 0.11529447027082462 4.922601914896433 0.14496088367384385 L 5.04261604184501 0.14496088367384385 L 4.999464895076982 0.3297017307744632 L 4.737186831127563 0.3297017307744632 Q 4.728421754440307 0.30880039405869975 4.712577192736421 0.2892475306794371 Q 4.696732631032536 0.26969466730017444 4.674482820980272 0.2548614605986649 Q 4.652233010928008 0.2400282538971552 4.624252189195614 0.23126317720989964 Q 4.596271367463221 0.22249810052264396 4.56323377071895 0.22249810052264396 Q 4.494461630557406 0.22249810052264396 4.432431857078365 0.2548614605986649 Q 4.370402083599325 0.2872248206746858 4.323879753490045 0.34116375413472066 Q 4.277357423380765 0.39510268759475553 4.2497137199824975 0.46454906442455035 Q 4.2220700165842295 0.5339954412543453 4.2220700165842295 0.6088357114301437 Q 4.2220700165842295 0.6594034615489264 4.235891868283363 0.7018803716487039 Q 4.2497137199824975 0.7443572817484813 4.275671831710139 0.7757092868221265 Q 4.3016299434377805 0.8070612918957718 4.33905007852568 0.8245914452702832 Q 4.37647021361358 0.8421215986447945 4.42366678039111 0.8421215986447945 Q 4.467492163827388 0.8421215986447945 4.50963195559304 0.828973983613911 Q 4.551771747358693 0.8158263685830275 4.587169172441841 0.7925652035283874 Q 4.6225665975249886 0.7693040384737474 4.647176235916129 0.7399747434048534 Q 4.67178587430727 0.7106454483359594 4.684596371004028 0.6803047982646899 L 4.469514873832139 0.6803047982646899 L 4.511991783931917 0.4955639511640705 L 4.987328635048474 0.4955639511640705 L 4.860572141417392 1.041021415778673 L 4.658975377610512 1.041021415778673 M 5.46131701282853 1.0619227524944366 Q 5.3696208259464715 1.0619227524944366 5.2924207274317965 1.0305707474207912 Q 5.2152206289171215 0.999218742347146 5.15892186711821 0.9425828622141094 Q 5.1026231053192985 0.8859469820810728 5.071271100245653 0.8067241735616466 Q 5.039919095172008 0.7275013650422204 5.039919095172008 0.631085521482408 Q 5.039919095172008 0.5353439145908462 5.064191615229023 0.4514014493936669 Q 5.088464135286039 0.3674589841964876 5.1312781637199425 0.29733837069844227 Q 5.174092192153845 0.22721775720039694 5.232413663957508 0.1719303504038613 Q 5.29073513576117 0.11664294360732552 5.358833039254464 0.07854857185117592 Q 5.426930942747759 0.040454200095026316 5.5021083312576815 0.020227100047513158 Q 5.577285719767605 0 5.654148699948156 0 Q 5.749890306839717 0 5.827764642022642 0.031689123407770525 Q 5.905638977205568 0.06337824681554105 5.960589265667978 0.12035124528270291 Q 6.015539554130388 0.17732424374986477 6.045543085867533 0.2568841706034162 Q 6.075546617604678 0.3364440974569676 6.075546617604678 0.43218570434852943 Q 6.075546617604678 0.5259046012353401 6.052959689218288 0.6088357114301437 Q 6.030372760831899 0.6917668216249473 5.989244324068622 0.7618874351229926 Q 5.948115887305345 0.8320080486210379 5.891480007172309 0.8876325737516989 Q 5.834844127039272 0.9432570988823599 5.766409105211853 0.9820257073067599 Q 5.697974083384434 1.0207943157311599 5.620773984869759 1.0413585341127982 Q 5.543573886355084 1.0619227524944366 5.46131701282853 1.0619227524944366 M 5.486938006222047 0.8353792319622901 Q 5.532111862994826 0.8353792319622901 5.575263009762854 0.8208831435949058 Q 5.618414156530882 0.8063870552275214 5.656171409952907 0.7807660618340048 Q 5.693928663374931 0.7551450684404882 5.725617786782701 0.7194105250232151 Q 5.757306910190472 0.683675981605942 5.779893838576862 0.6411990715061646 Q 5.802480766963251 0.5987221614063871 5.81529126366001 0.5508513579606062 Q 5.828101760356768 0.5029805545148253 5.828101760356768 0.453087041064293 Q 5.828101760356768 0.4025192909455103 5.8142799086576336 0.3610537358481085 Q 5.8004580569585 0.3195881807507067 5.774162826896733 0.2895846490135623 Q 5.747867596834966 0.25958111727641786 5.710110343412941 0.2430623189042822 Q 5.672353089990917 0.22654352053214655 5.625156523213386 0.22654352053214655 Q 5.556384383051842 0.22654352053214655 5.4943546095728015 0.2582326439399171 Q 5.432324836093762 0.2899217673476875 5.385802505984482 0.34318646413947196 Q 5.339280175875202 0.39645116093125643 5.311636472476934 0.46522330109280086 Q 5.283992769078666 0.5339954412543453 5.283992769078666 0.6088357114301437 Q 5.283992769078666 0.6594034615489264 5.298151739111925 0.7008690166463282 Q 5.312310709145184 0.74233457174373 5.338943057541076 0.7723381034808743 Q 5.365575405936968 0.8023416352180187 5.402995541024868 0.8188604335901544 Q 5.440415676112767 0.8353792319622901 5.486938006222047 0.8353792319622901 M 6.538072972024477 1.0619227524944366 Q 6.446376785142418 1.0619227524944366 6.369176686627743 1.0305707474207912 Q 6.291976588113068 0.999218742347146 6.235677826314157 0.9425828622141094 Q 6.179379064515245 0.8859469820810728 6.148027059441599 0.8067241735616466 Q 6.1166750543679544 0.7275013650422204 6.1166750543679544 0.631085521482408 Q 6.1166750543679544 0.5353439145908462 6.1409475744249695 0.4514014493936669 Q 6.1652200944819855 0.3674589841964876 6.208034122915889 0.29733837069844227 Q 6.250848151349791 0.22721775720039694 6.309169623153454 0.1719303504038613 Q 6.367491094957116 0.11664294360732552 6.43558899845041 0.07854857185117592 Q 6.503686901943705 0.040454200095026316 6.578864290453628 0.020227100047513158 Q 6.6540416789635515 0 6.730904659144102 0 Q 6.826646266035663 0 6.9045206012185885 0.031689123407770525 Q 6.982394936401514 0.06337824681554105 7.037345224863924 0.12035124528270291 Q 7.092295513326334 0.17732424374986477 7.122299045063479 0.2568841706034162 Q 7.152302576800624 0.3364440974569676 7.152302576800624 0.43218570434852943 Q 7.152302576800624 0.5259046012353401 7.129715648414234 0.6088357114301437 Q 7.107128720027845 0.6917668216249473 7.066000283264568 0.7618874351229926 Q 7.024871846501291 0.8320080486210379 6.968235966368255 0.8876325737516989 Q 6.911600086235218 0.9432570988823599 6.843165064407799 0.9820257073067599 Q 6.77473004258038 1.0207943157311599 6.697529944065705 1.0413585341127982 Q 6.62032984555103 1.0619227524944366 6.538072972024477 1.0619227524944366 M 6.563693965417993 0.8353792319622901 Q 6.608867822190772 0.8353792319622901 6.6520189689588 0.8208831435949058 Q 6.695170115726828 0.8063870552275214 6.732927369148853 0.7807660618340048 Q 6.770684622570877 0.7551450684404882 6.802373745978647 0.7194105250232151 Q 6.834062869386418 0.683675981605942 6.856649797772808 0.6411990715061646 Q 6.879236726159197 0.5987221614063871 6.892047222855956 0.5508513579606062 Q 6.904857719552714 0.5029805545148253 6.904857719552714 0.453087041064293 Q 6.904857719552714 0.4025192909455103 6.89103586785358 0.3610537358481085 Q 6.877214016154446 0.3195881807507067 6.850918786092679 0.2895846490135623 Q 6.824623556030912 0.25958111727641786 6.786866302608887 0.2430623189042822 Q 6.749109049186863 0.22654352053214655 6.701912482409332 0.22654352053214655 Q 6.633140342247788 0.22654352053214655 6.571110568768748 0.2582326439399171 Q 6.509080795289708 0.2899217673476875 6.462558465180428 0.34318646413947196 Q 6.416036135071148 0.39645116093125643 6.38839243167288 0.46522330109280086 Q 6.360748728274612 0.5339954412543453 6.360748728274612 0.6088357114301437 Q 6.360748728274612 0.6594034615489264 6.374907698307871 0.7008690166463282 Q 6.389066668341131 0.74233457174373 6.4156990167370225 0.7723381034808743 Q 6.442331365132914 0.8023416352180187 6.479751500220814 0.8188604335901544 Q 6.5171716353087135 0.8353792319622901 6.563693965417993 0.8353792319622901 M 7.388285410688276 0.01887862671101237 L 7.7982213049845415 0.01887862671101237 Q 7.890591728534851 0.01887862671101237 7.9681289453836515 0.04719656677753059 Q 8.04566616223245 0.07551450684404892 8.101964924031362 0.1291163219699586 Q 8.158263685830274 0.18271813709586826 8.189615690903919 0.26092959061291876 Q 8.220967695977565 0.33914104412996937 8.220967695977565 0.4389280710310338 Q 8.220967695977565 0.5232076545623383 8.201414832598301 0.6004077530770132 Q 8.181861969219039 0.6776078515916881 8.144104715797015 0.7443572817484813 Q 8.106347462374991 0.8111067119052744 8.051060055578455 0.8657198820335597 Q 7.995772648781919 0.920333052161845 7.924303561947373 0.9594387789203703 Q 7.852834475112827 0.9985445056788955 7.765520826574395 1.0197829607287843 Q 7.678207178035963 1.041021415778673 7.577071677798398 1.041021415778673 L 7.1516283401323735 1.041021415778673 L 7.194779486900401 0.8562805686780536 L 7.299286170479219 0.8562805686780536 L 7.450315184167317 0.2042937104798822 L 7.345134263920248 0.2042937104798822 L 7.388285410688276 0.01887862671101237 M 7.686972254723219 0.2042937104798822 L 7.535269004366871 0.8562805686780536 L 7.607412327869668 0.8562805686780536 Q 7.65663160465195 0.8562805686780536 7.702816816427105 0.8417844803106692 Q 7.749002028202259 0.8272883919432849 7.789793346631411 0.8013302802156431 Q 7.830584665060562 0.7753721684880013 7.864633616807209 0.7389633884024778 Q 7.898682568553856 0.7025546083169543 7.923292206944997 0.6583921065465507 Q 7.947901845336138 0.6142296047761471 7.961386578701147 0.5636618546573644 Q 7.974871312066155 0.5130941045385817 7.974871312066155 0.45848093441029647 Q 7.974871312066155 0.38768608424400075 7.957004040357519 0.33914104412996937 Q 7.939136768648883 0.290596004015938 7.909133236911738 0.26059247227879356 Q 7.879129705174593 0.23058894054164913 7.840023978416069 0.21744132551076567 Q 7.800918251657543 0.2042937104798822 7.7584413415577655 0.2042937104798822 L 7.686972254723219 0.2042937104798822 M 0.7639101451277438 2.379111507588488 L 0.7996446885450169 2.225385547227389 Q 0.7726752218149995 2.268536693995417 0.7298611933810968 2.309328012424568 Q 0.6870471649471941 2.3501193308537194 0.6246802731340287 2.3750660875789853 Q 0.5623133813208635 2.4000128443042517 0.4969124245005712 2.4000128443042517 Q 0.4085874209597641 2.4000128443042517 0.33307291411571527 2.3686608392306066 Q 0.25755840727166646 2.337308834156961 0.20193388214100552 2.2806729540239243 Q 0.1463093570103446 2.2240370738908877 0.11462023360257409 2.1448142653714615 Q 0.0829311101948036 2.0655914568520353 0.0829311101948036 1.9691756132922231 Q 0.0829311101948036 1.8734340064006614 0.1072036302518193 1.789491541203482 Q 0.13147615030883497 1.7055490760063026 0.17429017874273767 1.6354284625082574 Q 0.21710420717664033 1.5653078490102121 0.275425678980303 1.5100204422136763 Q 0.3337471507839657 1.4547330354171406 0.40184505427725975 1.416638663660991 Q 0.4699429577705538 1.3785442919048414 0.5451203462804773 1.3583171918573282 Q 0.620297734790401 1.338090091809815 0.6971607149709507 1.338090091809815 Q 0.7497511750944846 1.338090091809815 0.7996446885450169 1.3492149968359475 Q 0.8495382019955491 1.3603399018620796 0.8930264670977023 1.3802298835754674 Q 0.9365147321998554 1.4001198652888553 0.9705636839465024 1.4267522136847475 Q 1.0046126356931493 1.4533845620806396 1.0275366824136642 1.483050975483659 L 1.1475508093622417 1.483050975483659 L 1.1043996625942138 1.6677918225842783 L 0.8421215986447943 1.6677918225842783 Q 0.8333565219575387 1.6468904858685147 0.8175119602536535 1.6273376224892522 Q 0.8016673985497682 1.6077847591099896 0.7794175884975039 1.59295155240848 Q 0.7571677784452394 1.5781183457069703 0.7291869567128464 1.5693532690197147 Q 0.7012061349804533 1.560588192332459 0.6681685382361819 1.560588192332459 Q 0.5993963980746374 1.560588192332459 0.5373666245955974 1.59295155240848 Q 0.47533685111655727 1.6253149124845008 0.4288145210072772 1.6792538459445359 Q 0.3822921908979971 1.7331927794045705 0.3546484874997292 1.8026391562343655 Q 0.3270047841014614 1.8720855330641604 0.3270047841014614 1.9469258032399588 Q 0.3270047841014614 1.9974935533587415 0.3408266358005953 2.039970463458519 Q 0.3546484874997292 2.0824473735582965 0.380606599227371 2.1137993786319416 Q 0.4065647109550128 2.1451513837055867 0.443984846042912 2.1626815370800982 Q 0.4814049811308112 2.1802116904546094 0.5286015479083417 2.1802116904546094 Q 0.57242693134462 2.1802116904546094 0.6145667231102723 2.167064075423726 Q 0.6567065148759245 2.1539164603928427 0.6921039399590724 2.1306552953382023 Q 0.7275013650422203 2.1073941302835624 0.7521110034333611 2.0780648352146684 Q 0.7767206418245021 2.0487355401457745 0.7895311385212603 2.018394890074505 L 0.5744496413493714 2.018394890074505 L 0.6169265514491488 1.8336540429738855 L 1.092263402565706 1.8336540429738855 L 0.9655069089346241 2.379111507588488 L 0.7639101451277438 2.379111507588488 M 1.326897763116858 1.3569687185208275 L 2.201382721837673 1.3569687185208275 L 2.1211485583158716 1.7055490760063026 L 1.8851657244282187 1.7055490760063026 L 1.9222487411819926 1.5423838022896974 L 1.6383951038485591 1.5423838022896974 L 1.587153117061526 1.7621849561393392 L 1.814370874261923 1.7621849561393392 L 1.7691970174891436 1.9577135899319658 L 1.541979260288747 1.9577135899319658 L 1.4866918534922111 2.1943706604878686 L 1.7536895741193836 2.1943706604878686 L 1.7948180108826604 2.0130009967285014 L 2.0314750814385634 2.0130009967285014 L 1.9471954979072588 2.379111507588488 L 1.103051189257713 2.379111507588488 L 1.146202336025741 2.1943706604878686 L 1.2507090196045585 2.1943706604878686 L 1.4017380332926561 1.5423838022896974 L 1.2844208530170804 1.5423838022896974 L 1.326897763116858 1.3569687185208275 M 2.5809779660626684 2.4000128443042517 Q 2.489281779180609 2.4000128443042517 2.4120816806659344 2.3686608392306066 Q 2.3348815821512594 2.337308834156961 2.278582820352348 2.2806729540239243 Q 2.2222840585534365 2.2240370738908877 2.1909320534797914 2.1448142653714615 Q 2.1595800484061463 2.0655914568520353 2.1595800484061463 1.9691756132922231 Q 2.1595800484061463 1.8734340064006614 2.183852568463162 1.789491541203482 Q 2.2081250885201773 1.7055490760063026 2.25093911695408 1.6354284625082574 Q 2.2937531453879827 1.5653078490102121 2.3520746171916453 1.5100204422136763 Q 2.410396088995308 1.4547330354171406 2.4784939924886022 1.416638663660991 Q 2.546591895981896 1.3785442919048414 2.62176928449182 1.3583171918573282 Q 2.6969466730017433 1.338090091809815 2.773809653182293 1.338090091809815 Q 2.869551260073855 1.338090091809815 2.9474255952567803 1.3697792152175856 Q 3.0252999304397057 1.4014683386253561 3.0802502189021164 1.458441337092518 Q 3.1352005073645266 1.5154143355596799 3.1652040391016714 1.5949742624132313 Q 3.1952075708388152 1.6745341892667827 3.1952075708388152 1.7702757961583444 Q 3.1952075708388152 1.8639946930451552 3.1726206424524257 1.9469258032399588 Q 3.150033714066036 2.029856913434762 3.1089052773027595 2.0999775269328076 Q 3.067776840539483 2.170098140430853 3.0111409604064465 2.225722665561514 Q 2.95450508027341 2.2813471906921747 2.8860700584459904 2.320115799116575 Q 2.8176350366185714 2.358884407540975 2.7404349381038964 2.3794486259226133 Q 2.6632348395892214 2.4000128443042517 2.5809779660626684 2.4000128443042517 M 2.606598959456185 2.173469323772105 Q 2.651772816228964 2.173469323772105 2.694923962996992 2.1589732354047206 Q 2.73807510976502 2.1444771470373363 2.7758323631870443 2.11885615364382 Q 2.813589616609069 2.093235160250303 2.8452787400168393 2.05750061683303 Q 2.8769678634246096 2.021766073415757 2.899554791810999 1.9792891633159797 Q 2.9221417201973887 1.9368122532162022 2.934952216894147 1.8889414497704213 Q 2.9477627135909055 1.8410706463246402 2.9477627135909055 1.791177132874108 Q 2.9477627135909055 1.7406093827553253 2.9339408618917715 1.6991438276579236 Q 2.9201190101926375 1.657678272560522 2.8938237801308704 1.6276747408233774 Q 2.8675285500691037 1.5976712090862328 2.8297712966470794 1.5811524107140973 Q 2.7920140432250546 1.5646336123419617 2.7448174764475244 1.5646336123419617 Q 2.6760453362859797 1.5646336123419617 2.61401556280694 1.596322735749732 Q 2.5519857893278997 1.6280118591575026 2.50546345921862 1.681276555949287 Q 2.4589411291093395 1.7345412527410715 2.4312974257110715 1.803313392902616 Q 2.4036537223128036 1.8720855330641604 2.4036537223128036 1.9469258032399588 Q 2.4036537223128036 1.9974935533587415 2.4178126923460628 2.0389591084561434 Q 2.431971662379322 2.0804246635535453 2.4586040107752143 2.1104281952906896 Q 2.4852363591711066 2.140431727027834 2.5226564942590057 2.1569505253999695 Q 2.560076629346905 2.173469323772105 2.606598959456185 2.173469323772105 M 3.207343830867323 2.020417600079256 L 3.452765978110482 2.020417600079256 Q 3.43456158806772 2.0885155035725504 3.4399554814137234 2.1168334436390683 Q 3.445349374759727 2.1451513837055867 3.462542409800113 2.164030010416599 Q 3.479735444840499 2.1829086371276114 3.509064739909393 2.193359305485493 Q 3.538394034978287 2.203809973843375 3.580196708409814 2.203809973843375 Q 3.6179539618318386 2.203809973843375 3.647957493568983 2.193696423819618 Q 3.6779610253061272 2.183582873795862 3.699199480356016 2.165715602087225 Q 3.7204379354059047 2.1478483303785887 3.731562840432037 2.1232386919874475 Q 3.742687745458169 2.098629053596307 3.742687745458169 2.069636876861538 Q 3.742687745458169 2.0473870668092737 3.7332484321026627 2.0312053867712634 Q 3.7238091187471567 2.0150237067332526 3.7079645570432715 2.0032245650388703 Q 3.6921199953393864 1.9914254233444875 3.671218658623623 1.982660346657232 Q 3.6503173219078593 1.973895269969976 3.626719038519094 1.9664786666192213 L 3.5107503315800193 1.9260244665241952 Q 3.470296131484993 1.9125397331591865 3.436921416406596 1.8886043314362961 Q 3.4035467013282 1.8646689297134056 3.379611299605309 1.8323055696373847 Q 3.355675897882419 1.7999422095613637 3.34219116451741 1.7591508911322125 Q 3.3287064311524013 1.718359572703061 3.3287064311524013 1.671837242593781 Q 3.3287064311524013 1.5889061323989773 3.3597213178919216 1.526539240585812 Q 3.3907362046314415 1.4641723487726468 3.4463607297621026 1.4227067936752449 Q 3.5019852548927632 1.381241238577843 3.5791853534074383 1.3603399018620796 Q 3.6563854519221133 1.339438565146316 3.748755875472423 1.339438565146316 Q 3.815505305629216 1.339438565146316 3.8701184757575016 1.354946008516076 Q 3.9247316458857866 1.3704534518858362 3.9641744909784373 1.3964115636134777 Q 4.003617336071088 1.4223696753411197 4.024181554452726 1.4543959170830154 Q 4.044745772834364 1.4864221588249111 4.049465429512117 1.518785518900932 L 4.127002646360918 1.518785518900932 L 4.086548446265891 1.6913901059730436 L 3.8424747723592336 1.6913901059730436 Q 3.856633742392493 1.6286860958257532 3.850565612378239 1.6044135757687372 Q 3.844497482363985 1.5801410557117217 3.8269673289894737 1.5626109023372103 Q 3.809437175614962 1.545080748962699 3.7828048272190697 1.5359785539413182 Q 3.756172478823178 1.5268763589199372 3.7238091187471567 1.5268763589199372 Q 3.6907715220028856 1.5268763589199372 3.661105108599866 1.5332816072683164 Q 3.631438695196847 1.5396868556166954 3.6091888851445826 1.5535087073158294 Q 3.5869390750923182 1.5673305590149633 3.573791460061435 1.5889061323989773 Q 3.5606438450305515 1.6104817057829912 3.5606438450305515 1.6401481191860103 Q 3.5606438450305515 1.6664433492477775 3.5717687500566835 1.682962147619913 Q 3.582893655082816 1.6994809459920488 3.6075032934739566 1.7119543243546818 Q 3.6321129318650973 1.724427702717315 3.680657971979129 1.7426320927600767 L 3.8202249623069693 1.7938740795471098 Q 3.906527255843025 1.8248889662866299 3.9463072192698005 1.8875929764339203 Q 3.9860871826965765 1.950296986581211 3.9860871826965765 2.0406447001267694 Q 3.9860871826965765 2.1242500469898236 3.95338670428643 2.189988122144241 Q 3.9206862258762842 2.2557261972986584 3.8627018724067463 2.301574290739688 Q 3.804717518937209 2.347422384180718 3.724146237081282 2.3716949042377333 Q 3.643574955225355 2.395967424294749 3.5485075850020436 2.395967424294749 Q 3.4777127348357477 2.395967424294749 3.419391263032085 2.3784372709202377 Q 3.3610697912284224 2.360907117545726 3.320615591133396 2.3288808758038306 Q 3.2801613910383702 2.296854634061935 3.263305474332109 2.260445853976411 Q 3.2464495576258483 2.2240370738908877 3.2424041376163455 2.1930221871513678 L 3.166889630772297 2.1930221871513678 L 3.207343830867323 2.020417600079256 M 4.512666020600167 2.4000128443042517 Q 4.420969833718108 2.4000128443042517 4.343769735203433 2.3686608392306066 Q 4.266569636688758 2.337308834156961 4.210270874889847 2.2806729540239243 Q 4.153972113090935 2.2240370738908877 4.12262010801729 2.1448142653714615 Q 4.091268102943645 2.0655914568520353 4.091268102943645 1.9691756132922231 Q 4.091268102943645 1.8734340064006614 4.11554062300066 1.789491541203482 Q 4.139813143057676 1.7055490760063026 4.182627171491579 1.6354284625082574 Q 4.2254411999254815 1.5653078490102121 4.283762671729145 1.5100204422136763 Q 4.342084143532807 1.4547330354171406 4.410182047026101 1.416638663660991 Q 4.478279950519395 1.3785442919048414 4.553457339029318 1.3583171918573282 Q 4.628634727539242 1.338090091809815 4.7054977077197915 1.338090091809815 Q 4.801239314611354 1.338090091809815 4.879113649794279 1.3697792152175856 Q 4.9569879849772045 1.4014683386253561 5.011938273439615 1.458441337092518 Q 5.066888561902026 1.5154143355596799 5.09689209363917 1.5949742624132313 Q 5.1268956253763145 1.6745341892667827 5.1268956253763145 1.7702757961583444 Q 5.1268956253763145 1.8639946930451552 5.104308696989925 1.9469258032399588 Q 5.0817217686035345 2.029856913434762 5.040593331840259 2.0999775269328076 Q 4.999464895076982 2.170098140430853 4.942829014943945 2.225722665561514 Q 4.886193134810909 2.2813471906921747 4.81775811298349 2.320115799116575 Q 4.74932309115607 2.358884407540975 4.672122992641396 2.3794486259226133 Q 4.594922894126721 2.4000128443042517 4.512666020600167 2.4000128443042517 M 4.538287013993684 2.173469323772105 Q 4.583460870766463 2.173469323772105 4.626612017534491 2.1589732354047206 Q 4.669763164302519 2.1444771470373363 4.7075204177245435 2.11885615364382 Q 4.745277671146567 2.093235160250303 4.776966794554339 2.05750061683303 Q 4.808655917962109 2.021766073415757 4.831242846348498 1.9792891633159797 Q 4.853829774734888 1.9368122532162022 4.866640271431646 1.8889414497704213 Q 4.879450768128404 1.8410706463246402 4.879450768128404 1.791177132874108 Q 4.879450768128404 1.7406093827553253 4.86562891642927 1.6991438276579236 Q 4.851807064730137 1.657678272560522 4.82551183466837 1.6276747408233774 Q 4.7992166046066025 1.5976712090862328 4.761459351184578 1.5811524107140973 Q 4.723702097762554 1.5646336123419617 4.676505530985024 1.5646336123419617 Q 4.607733390823479 1.5646336123419617 4.545703617344438 1.596322735749732 Q 4.4836738438653985 1.6280118591575026 4.437151513756119 1.681276555949287 Q 4.390629183646839 1.7345412527410715 4.362985480248571 1.803313392902616 Q 4.335341776850303 1.8720855330641604 4.335341776850303 1.9469258032399588 Q 4.335341776850303 1.9974935533587415 4.349500746883562 2.0389591084561434 Q 4.363659716916821 2.0804246635535453 4.390292065312713 2.1104281952906896 Q 4.416924413708605 2.140431727027834 4.454344548796504 2.1569505253999695 Q 4.491764683884404 2.173469323772105 4.538287013993684 2.173469323772105 M 5.350067962567208 1.3569687185208275 L 5.805851950304503 1.3569687185208275 L 5.763375040204726 1.5423838022896974 L 5.660216829962409 1.5423838022896974 L 5.508513579606061 2.1943706604878686 L 5.702019503393936 2.1943706604878686 Q 5.726292023450952 2.1943706604878686 5.743485058491338 2.1785260987839834 Q 5.760678093531724 2.1626815370800982 5.767420460214229 2.139083253691333 L 5.8004580569585 2.0035616833729955 L 6.0283500508271475 2.0035616833729955 L 5.942721993959342 2.379111507588488 L 5.126221388708064 2.379111507588488 L 5.169372535476092 2.1943706604878686 L 5.2725307457184085 2.1943706604878686 L 5.423559759406507 1.5423838022896974 L 5.307591052467431 1.5423838022896974 L 5.350067962567208 1.3569687185208275 M 6.162523147808984 1.3569687185208275 L 6.575155988778251 1.3569687185208275 L 6.532004842010223 1.5423838022896974 L 6.453793388493172 1.5423838022896974 L 6.355354834928609 1.9664786666192213 Q 6.34119586489535 2.033902333444265 6.3472639949096035 2.071322468532164 Q 6.353332124923857 2.108742603620063 6.373559224971371 2.1357120703500807 Q 6.393786325018883 2.1626815370800982 6.4234527384219025 2.1748177971086062 Q 6.453119151824922 2.1869540571371138 6.493573351919948 2.1869540571371138 Q 6.532679078678473 2.1869540571371138 6.564031083752119 2.175829152110982 Q 6.595383088825764 2.1647042470848494 6.62032984555103 2.138746135357208 Q 6.645276602276296 2.112788023629566 6.664492347321434 2.0706482318639137 Q 6.683708092366571 2.0285084400982614 6.69786706239983 1.9664786666192213 L 6.795631379296143 1.5423838022896974 L 6.703260955745834 1.5423838022896974 L 6.746412102513862 1.3569687185208275 L 7.159044943483128 1.3569687185208275 L 7.11656803338335 1.5423838022896974 L 7.028917266510794 1.5423838022896974 L 6.924410582931976 1.996819316690491 Q 6.9001380628749605 2.10334871027406 6.859009626111685 2.179874572120484 Q 6.817881189348408 2.256400433966909 6.7598968358788705 2.3052825924150655 Q 6.701912482409333 2.354164750863222 6.626735093899409 2.377088797583737 Q 6.551557705389485 2.4000128443042517 6.459187281839176 2.4000128443042517 Q 6.382998538326877 2.4000128443042517 6.319283173177211 2.377425915917862 Q 6.2555678080275445 2.3548389875314726 6.209382596252389 2.314047669102321 Q 6.163197384477234 2.2732563506731696 6.139261982754344 2.2156091155377573 Q 6.115326581031454 2.157961880402345 6.111618279356076 2.093235160250303 Q 6.107909977680698 2.0285084400982614 6.12476589438696 1.9523196965859622 L 6.220507501278521 1.5423838022896974 L 6.119372001040956 1.5423838022896974 L 6.162523147808984 1.3569687185208275 M 7.237930633668429 2.1943706604878686 L 7.343785790583747 2.1943706604878686 L 7.495489040940096 1.5423838022896974 L 7.364687127299511 1.5423838022896974 L 7.335694950564743 1.6677918225842783 L 7.103757536686593 1.6677918225842783 L 7.175900860189389 1.3569687185208275 L 8.13668811244626 1.3569687185208275 L 8.065219025611714 1.6677918225842783 L 7.833281611733564 1.6677918225842783 L 7.8622737884683325 1.5423838022896974 L 7.731471874827748 1.5423838022896974 L 7.5797686244714 2.1943706604878686 L 7.693714621405724 2.1943706604878686 L 7.650563474637696 2.379111507588488 L 7.195453723568652 2.379111507588488 L 7.237930633668429 2.1943706604878686 M 8.194672465915797 1.3569687185208275 L 8.650456453653092 1.3569687185208275 L 8.607979543553315 1.5423838022896974 L 8.506169806647499 1.5423838022896974 L 8.35446655629115 2.1943706604878686 L 8.469761026561976 2.1943706604878686 L 8.426609879793947 2.379111507588488 L 7.970825892056653 2.379111507588488 L 8.013977038824681 2.1943706604878686 L 8.118483722403498 2.1943706604878686 L 8.269512736091595 1.5423838022896974 L 8.15219555581602 1.5423838022896974 L 8.194672465915797 1.3569687185208275 M 9.058369637944605 2.4000128443042517 Q 8.966673451062546 2.4000128443042517 8.88947335254787 2.3686608392306066 Q 8.812273254033196 2.337308834156961 8.755974492234285 2.2806729540239243 Q 8.699675730435374 2.2240370738908877 8.668323725361729 2.1448142653714615 Q 8.636971720288082 2.0655914568520353 8.636971720288082 1.9691756132922231 Q 8.636971720288082 1.8734340064006614 8.661244240345098 1.789491541203482 Q 8.685516760402114 1.7055490760063026 8.728330788836017 1.6354284625082574 Q 8.77114481726992 1.5653078490102121 8.829466289073583 1.5100204422136763 Q 8.887787760877245 1.4547330354171406 8.95588566437054 1.416638663660991 Q 9.023983567863834 1.3785442919048414 9.099160956373757 1.3583171918573282 Q 9.174338344883681 1.338090091809815 9.25120132506423 1.338090091809815 Q 9.346942931955793 1.338090091809815 9.424817267138717 1.3697792152175856 Q 9.502691602321644 1.4014683386253561 9.557641890784053 1.458441337092518 Q 9.612592179246464 1.5154143355596799 9.642595710983608 1.5949742624132313 Q 9.672599242720752 1.6745341892667827 9.672599242720752 1.7702757961583444 Q 9.672599242720752 1.8639946930451552 9.650012314334363 1.9469258032399588 Q 9.627425385947973 2.029856913434762 9.586296949184696 2.0999775269328076 Q 9.54516851242142 2.170098140430853 9.488532632288383 2.225722665561514 Q 9.431896752155346 2.2813471906921747 9.363461730327927 2.320115799116575 Q 9.295026708500508 2.358884407540975 9.217826609985833 2.3794486259226133 Q 9.140626511471158 2.4000128443042517 9.058369637944605 2.4000128443042517 M 9.083990631338121 2.173469323772105 Q 9.129164488110902 2.173469323772105 9.17231563487893 2.1589732354047206 Q 9.215466781646956 2.1444771470373363 9.253224035068982 2.11885615364382 Q 9.290981288491006 2.093235160250303 9.322670411898777 2.05750061683303 Q 9.354359535306546 2.021766073415757 9.376946463692937 1.9792891633159797 Q 9.399533392079325 1.9368122532162022 9.412343888776084 1.8889414497704213 Q 9.425154385472842 1.8410706463246402 9.425154385472842 1.791177132874108 Q 9.425154385472842 1.7406093827553253 9.41133253377371 1.6991438276579236 Q 9.397510682074575 1.657678272560522 9.371215452012807 1.6276747408233774 Q 9.34492022195104 1.5976712090862328 9.307162968529017 1.5811524107140973 Q 9.269405715106991 1.5646336123419617 9.222209148329462 1.5646336123419617 Q 9.153437008167916 1.5646336123419617 9.091407234688877 1.596322735749732 Q 9.029377461209837 1.6280118591575026 8.982855131100557 1.681276555949287 Q 8.936332800991277 1.7345412527410715 8.908689097593008 1.803313392902616 Q 8.881045394194741 1.8720855330641604 8.881045394194741 1.9469258032399588 Q 8.881045394194741 1.9974935533587415 8.895204364228 2.0389591084561434 Q 8.90936333426126 2.0804246635535453 8.935995682657152 2.1104281952906896 Q 8.962628031053043 2.140431727027834 9.000048166140942 2.1569505253999695 Q 9.037468301228841 2.173469323772105 9.083990631338121 2.173469323772105 M 10.546409964773318 1.3569687185208275 L 10.959042805742584 1.3569687185208275 L 10.916565895642806 1.5423838022896974 L 10.82891512877025 1.5423838022896974 L 10.636083441650626 2.379111507588488 L 10.404146027772475 2.379111507588488 L 10.143890673827807 1.7487002227743305 L 10.04073246358549 2.1943706604878686 L 10.127708993789797 2.1943706604878686 L 10.08523208369002 2.379111507588488 L 9.671925006052502 2.379111507588488 L 9.71507615282053 2.1943706604878686 L 9.806098103034339 2.1943706604878686 L 9.956452880054186 1.5423838022896974 L 9.845878066461115 1.5423838022896974 L 9.889029213229142 1.3569687185208275 L 10.236935334046368 1.3569687185208275 L 10.48909984797203 1.9880542400032353 L 10.592932294882598 1.5423838022896974 L 10.503258818005289 1.5423838022896974 L 10.546409964773318 1.3569687185208275 M 10.88892219224454 2.020417600079256 L 11.134344339487697 2.020417600079256 Q 11.116139949444936 2.0885155035725504 11.121533842790939 2.1168334436390683 Q 11.126927736136944 2.1451513837055867 11.14412077117733 2.164030010416599 Q 11.161313806217715 2.1829086371276114 11.190643101286609 2.193359305485493 Q 11.219972396355503 2.203809973843375 11.26177506978703 2.203809973843375 Q 11.299532323209055 2.203809973843375 11.329535854946199 2.193696423819618 Q 11.359539386683343 2.183582873795862 11.380777841733233 2.165715602087225 Q 11.40201629678312 2.1478483303785887 11.413141201809253 2.1232386919874475 Q 11.424266106835386 2.098629053596307 11.424266106835386 2.069636876861538 Q 11.424266106835386 2.0473870668092737 11.414826793479879 2.0312053867712634 Q 11.405387480124373 2.0150237067332526 11.389542918420489 2.0032245650388703 Q 11.373698356716602 1.9914254233444875 11.352797020000839 1.982660346657232 Q 11.331895683285076 1.973895269969976 11.30829739989631 1.9664786666192213 L 11.192328692957235 1.9260244665241952 Q 11.151874492862209 1.9125397331591865 11.118499777783812 1.8886043314362961 Q 11.085125062705416 1.8646689297134056 11.061189660982526 1.8323055696373847 Q 11.037254259259635 1.7999422095613637 11.023769525894627 1.7591508911322125 Q 11.010284792529617 1.718359572703061 11.010284792529617 1.671837242593781 Q 11.010284792529617 1.5889061323989773 11.041299679269137 1.526539240585812 Q 11.072314566008657 1.4641723487726468 11.127939091139318 1.4227067936752449 Q 11.18356361626998 1.381241238577843 11.260763714784655 1.3603399018620796 Q 11.337963813299329 1.339438565146316 11.430334236849639 1.339438565146316 Q 11.497083667006432 1.339438565146316 11.551696837134717 1.354946008516076 Q 11.606310007263003 1.3704534518858362 11.645752852355653 1.3964115636134777 Q 11.685195697448304 1.4223696753411197 11.705759915829942 1.4543959170830154 Q 11.72632413421158 1.4864221588249111 11.731043790889334 1.518785518900932 L 11.808581007738134 1.518785518900932 L 11.768126807643107 1.6913901059730436 L 11.52405313373645 1.6913901059730436 Q 11.538212103769709 1.6286860958257532 11.532143973755455 1.6044135757687372 Q 11.5260758437412 1.5801410557117217 11.50854569036669 1.5626109023372103 Q 11.491015536992178 1.545080748962699 11.464383188596287 1.5359785539413182 Q 11.437750840200394 1.5268763589199372 11.405387480124373 1.5268763589199372 Q 11.372349883380101 1.5268763589199372 11.342683469977082 1.5332816072683164 Q 11.313017056574063 1.5396868556166954 11.2907672465218 1.5535087073158294 Q 11.268517436469535 1.5673305590149633 11.25536982143865 1.5889061323989773 Q 11.242222206407767 1.6104817057829912 11.242222206407767 1.6401481191860103 Q 11.242222206407767 1.6664433492477775 11.2533471114339 1.682962147619913 Q 11.264472016460031 1.6994809459920488 11.289081654851174 1.7119543243546818 Q 11.313691293242314 1.724427702717315 11.362236333356345 1.7426320927600767 L 11.501803323684186 1.7938740795471098 Q 11.588105617220242 1.8248889662866299 11.627885580647018 1.8875929764339203 Q 11.667665544073792 1.950296986581211 11.667665544073792 2.0406447001267694 Q 11.667665544073792 2.1242500469898236 11.634965065663646 2.189988122144241 Q 11.6022645872535 2.2557261972986584 11.544280233783963 2.301574290739688 Q 11.486295880314426 2.347422384180718 11.405724598458498 2.3716949042377333 Q 11.325153316602572 2.395967424294749 11.23008594637926 2.395967424294749 Q 11.159291096212964 2.395967424294749 11.100969624409302 2.3784372709202377 Q 11.042648152605638 2.360907117545726 11.002193952510613 2.3288808758038306 Q 10.961739752415586 2.296854634061935 10.944883835709325 2.260445853976411 Q 10.928027919003064 2.2240370738908877 10.923982498993562 2.1930221871513678 L 10.848467992149512 2.1930221871513678 L 10.88892219224454 2.020417600079256" fill="#09250f" fill-rule="nonzero"></path></g><g><path d=" M 0.73828125 2.7295590080461873 L 0.9180908203125 2.7295590080461873 L 0.90380859375 2.7929135002336873 L 0.853271484375 2.7929135002336873 L 0.5958251953125 3.2847347892961873 L 0.491455078125 3.2847347892961873 L 0.4720458984375 2.8559017814836873 L 0.2574462890625 3.2847347892961873 L 0.153076171875 3.2847347892961873 L 0.1204833984375 2.7929135002336873 L 0.0640869140625 2.7929135002336873 L 0.078369140625 2.7295590080461873 L 0.2581787109375 2.7295590080461873 L 0.243896484375 2.7929135002336873 L 0.195556640625 2.7929135002336873 L 0.2208251953125 3.2133236564836873 L 0.462158203125 2.7295590080461873 L 0.5401611328125 2.7295590080461873 L 0.55810546875 3.2133236564836873 L 0.7796630859375 2.7929135002336873 L 0.7239990234375 2.7929135002336873 L 0.73828125 2.7295590080461873 M 1.09423828125 3.2960873283586873 Q 1.04736328125 3.2960873283586873 1.00506591796875 3.2781429924211873 Q 0.9627685546875 3.2601986564836873 0.93072509765625 3.2274227775774373 Q 0.898681640625 3.1946468986711873 0.87982177734375 3.1483212150774373 Q 0.8609619140625 3.1019955314836873 0.8609619140625 3.0448666252336873 Q 0.8609619140625 2.9968929924211873 0.872314453125 2.9542294182024373 Q 0.8836669921875 2.9115658439836873 0.9041748046875 2.8753109611711873 Q 0.9246826171875 2.8390560783586873 0.95343017578125 2.8101254142961873 Q 0.982177734375 2.7811947502336873 1.01715087890625 2.7610531486711873 Q 1.0521240234375 2.7409115471086873 1.092041015625 2.7301083244524373 Q 1.1319580078125 2.7193051017961873 1.1751708984375 2.7193051017961873 Q 1.2220458984375 2.7193051017961873 1.26434326171875 2.7356014885149373 Q 1.306640625 2.7518978752336873 1.33868408203125 2.7830258049211873 Q 1.3707275390625 2.8141537346086873 1.38958740234375 2.8593807853899373 Q 1.408447265625 2.9046078361711873 1.408447265625 2.9621029533586873 Q 1.408447265625 3.0111752189836873 1.3974609375 3.0551205314836873 Q 1.386474609375 3.0990658439836873 1.36651611328125 3.1360531486711873 Q 1.3465576171875 3.1730404533586873 1.31817626953125 3.2027035392961873 Q 1.289794921875 3.2323666252336873 1.25482177734375 3.2530575432024373 Q 1.2198486328125 3.2737484611711873 1.17919921875 3.2849178947649373 Q 1.1385498046875 3.2960873283586873 1.09423828125 3.2960873283586873 M 1.1026611328125 3.2217465080461873 Q 1.1341552734375 3.2217465080461873 1.1630859375 3.2129574455461873 Q 1.1920166015625 3.2041683830461873 1.2169189453125 3.1878719963274373 Q 1.2418212890625 3.1715756096086873 1.26214599609375 3.1486874260149373 Q 1.282470703125 3.1257992424211873 1.2967529296875 3.0976010002336873 Q 1.31103515625 3.0694027580461873 1.31890869140625 3.0368099846086873 Q 1.3267822265625 3.0042172111711873 1.3267822265625 2.9683285392961873 Q 1.3267822265625 2.9284115471086873 1.31488037109375 2.8961849846086873 Q 1.302978515625 2.8639584221086873 1.28173828125 2.8410702385149373 Q 1.260498046875 2.8181820549211873 1.231201171875 2.8059139885149373 Q 1.201904296875 2.7936459221086873 1.1671142578125 2.7936459221086873 Q 1.1217041015625 2.7936459221086873 1.0810546875 2.8119564689836873 Q 1.0404052734375 2.8302670158586873 1.0096435546875 2.8630428947649373 Q 0.9788818359375 2.8958187736711873 0.9609375 2.9406796135149373 Q 0.9429931640625 2.9855404533586873 0.9429931640625 3.0386410392961873 Q 0.9429931640625 3.0778256096086873 0.95489501953125 3.1113339103899373 Q 0.966796875 3.1448422111711873 0.988037109375 3.1693783439836873 Q 1.00927734375 3.1939144767961873 1.03857421875 3.2078304924211873 Q 1.06787109375 3.2217465080461873 1.1026611328125 3.2217465080461873 M 1.5626220703125 2.7295590080461873 L 1.78857421875 2.7295590080461873 Q 1.8204345703125 2.7295590080461873 1.846435546875 2.7390804924211873 Q 1.8724365234375 2.7486019767961873 1.89093017578125 2.7658138908586873 Q 1.909423828125 2.7830258049211873 1.91949462890625 2.8070126213274373 Q 1.9295654296875 2.8309994377336873 1.9295654296875 2.8595638908586873 Q 1.9295654296875 2.8892269767961873 1.91949462890625 2.9143124260149373 Q 1.909423828125 2.9393978752336873 1.89239501953125 2.9589901603899373 Q 1.8753662109375 2.9785824455461873 1.85284423828125 2.9926815666399373 Q 1.830322265625 3.0067806877336873 1.805419921875 3.0148373283586873 Q 1.8197021484375 3.0250912346086873 1.82958984375 3.0455990471086873 Q 1.8394775390625 3.0661068596086873 1.8402099609375 3.0943051017961873 L 1.8424072265625 3.2217465080461873 L 1.8896484375 3.2217465080461873 L 1.8753662109375 3.2847347892961873 L 1.76806640625 3.2847347892961873 L 1.765869140625 3.1159115471086873 Q 1.76513671875 3.0701351799211873 1.7449951171875 3.0488949455461873 Q 1.724853515625 3.0276547111711873 1.6842041015625 3.0276547111711873 L 1.62451171875 3.0276547111711873 L 1.5802001953125 3.2217465080461873 L 1.634765625 3.2217465080461873 L 1.6204833984375 3.2847347892961873 L 1.4403076171875 3.2847347892961873 L 1.45458984375 3.2217465080461873 L 1.503662109375 3.2217465080461873 L 1.6025390625 2.7929135002336873 L 1.547607421875 2.7929135002336873 L 1.5626220703125 2.7295590080461873 M 1.6783447265625 2.7929135002336873 L 1.6387939453125 2.9661312736711873 L 1.7255859375 2.9661312736711873 Q 1.7530517578125 2.9661312736711873 1.77630615234375 2.9599056877336873 Q 1.799560546875 2.9536801017961873 1.81640625 2.9408627189836873 Q 1.833251953125 2.9280453361711873 1.8427734375 2.9086361564836873 Q 1.852294921875 2.8892269767961873 1.852294921875 2.8632260002336873 Q 1.852294921875 2.8478451408586873 1.84716796875 2.8348446525774373 Q 1.842041015625 2.8218441642961873 1.83123779296875 2.8125057853899373 Q 1.8204345703125 2.8031674064836873 1.80377197265625 2.7980404533586873 Q 1.787109375 2.7929135002336873 1.764404296875 2.7929135002336873 L 1.6783447265625 2.7929135002336873 M 2.4503173828125 2.7929135002336873 L 2.46533203125 2.7295590080461873 L 2.6077880859375 2.7295590080461873 L 2.5927734375 2.7929135002336873 L 2.558349609375 2.7929135002336873 L 2.2518310546875 3.0086117424211873 L 2.4232177734375 3.2217465080461873 L 2.4810791015625 3.2217465080461873 L 2.466796875 3.2847347892961873 L 2.3177490234375 3.2847347892961873 L 2.33203125 3.2217465080461873 L 2.1602783203125 3.0012875236711873 L 2.4503173828125 2.7929135002336873 M 2.091796875 2.7295590080461873 L 2.27197265625 2.7295590080461873 L 2.2569580078125 2.7929135002336873 L 2.206787109375 2.7929135002336873 L 2.108642578125 3.2217465080461873 L 2.1632080078125 3.2217465080461873 L 2.14892578125 3.2847347892961873 L 1.96875 3.2847347892961873 L 1.9830322265625 3.2217465080461873 L 2.0321044921875 3.2217465080461873 L 2.1309814453125 2.7929135002336873 L 2.0767822265625 2.7929135002336873 L 2.091796875 2.7295590080461873 M 3.1142578125 2.8683529533586873 Q 3.11865234375 2.8489437736711873 3.11260986328125 2.8339291252336873 Q 3.1065673828125 2.8189144767961873 3.0933837890625 2.8084774650774373 Q 3.0802001953125 2.7980404533586873 3.0615234375 2.7927303947649373 Q 3.0428466796875 2.7874203361711873 3.02197265625 2.7874203361711873 Q 2.9915771484375 2.7874203361711873 2.96759033203125 2.7954769767961873 Q 2.943603515625 2.8035336174211873 2.9271240234375 2.8174496330461873 Q 2.91064453125 2.8313656486711873 2.90185546875 2.8498593010149373 Q 2.89306640625 2.8683529533586873 2.89306640625 2.8888607658586873 Q 2.89306640625 2.9071713127336873 2.9000244140625 2.9185238517961873 Q 2.906982421875 2.9298763908586873 2.9176025390625 2.9372006096086873 Q 2.92822265625 2.9445248283586873 2.94122314453125 2.9489193596086873 Q 2.9542236328125 2.9533138908586873 2.96630859375 2.9577084221086873 L 3.0347900390625 2.9826107658586873 Q 3.0611572265625 2.9913998283586873 3.0809326171875 3.0034847892961873 Q 3.1007080078125 3.0155697502336873 3.1138916015625 3.0314999260149373 Q 3.1270751953125 3.0474301017961873 3.1336669921875 3.0677548088274373 Q 3.1402587890625 3.0880795158586873 3.1402587890625 3.1137142814836873 Q 3.1402587890625 3.1543636955461873 3.12451171875 3.1880551017961873 Q 3.1087646484375 3.2217465080461873 3.08038330078125 3.2457333244524373 Q 3.052001953125 3.2697201408586873 3.0120849609375 3.2829037346086873 Q 2.97216796875 3.2960873283586873 2.923828125 3.2960873283586873 Q 2.8802490234375 3.2960873283586873 2.85003662109375 3.2867489494524373 Q 2.81982421875 3.2774105705461873 2.8004150390625 3.2614803947649373 Q 2.781005859375 3.2455502189836873 2.77130126953125 3.2250424064836873 Q 2.7615966796875 3.2045345939836873 2.759033203125 3.1818295158586873 L 2.7242431640625 3.1818295158586873 L 2.738525390625 3.1236019767961873 L 2.838134765625 3.1236019767961873 L 2.83154296875 3.1507015861711873 Q 2.826416015625 3.1902523674211873 2.8546142578125 3.2096615471086873 Q 2.8828125 3.2290707267961873 2.936279296875 3.2290707267961873 Q 2.9637451171875 3.2290707267961873 2.98681640625 3.2213802971086873 Q 3.0098876953125 3.2136898674211873 3.02655029296875 3.1999569572649373 Q 3.043212890625 3.1862240471086873 3.052734375 3.1669979728899373 Q 3.062255859375 3.1477718986711873 3.062255859375 3.1250668205461873 Q 3.062255859375 3.1074886955461873 3.0560302734375 3.0946713127336873 Q 3.0498046875 3.0818539299211873 3.03900146484375 3.0725155510149373 Q 3.0281982421875 3.0631771721086873 3.01373291015625 3.0564022697649373 Q 2.999267578125 3.0496273674211873 2.9827880859375 3.0441342033586873 L 2.9190673828125 3.0236263908586873 Q 2.8692626953125 3.0078793205461873 2.8436279296875 2.9767513908586873 Q 2.8179931640625 2.9456234611711873 2.8179931640625 2.8969174064836873 Q 2.8179931640625 2.8595638908586873 2.832275390625 2.8275204338274373 Q 2.8465576171875 2.7954769767961873 2.87384033203125 2.7718563713274373 Q 2.901123046875 2.7482357658586873 2.94012451171875 2.7348690666399373 Q 2.9791259765625 2.7215023674211873 3.028564453125 2.7215023674211873 Q 3.0596923828125 2.7215023674211873 3.085693359375 2.7284603752336873 Q 3.1116943359375 2.7354183830461873 3.13165283203125 2.7478695549211873 Q 3.151611328125 2.7603207267961873 3.16534423828125 2.7778988517961873 Q 3.1790771484375 2.7954769767961873 3.185302734375 2.8167172111711873 L 3.2222900390625 2.8167172111711873 L 3.2080078125 2.8753109611711873 L 3.11279296875 2.8753109611711873 L 3.1142578125 2.8683529533586873 M 3.2303466796875 3.2217465080461873 L 3.2801513671875 3.2217465080461873 L 3.3790283203125 2.7929135002336873 L 3.3240966796875 2.7929135002336873 L 3.339111328125 2.7295590080461873 L 3.5072021484375 2.7295590080461873 L 3.579345703125 3.2059994377336873 L 3.866455078125 2.7295590080461873 L 4.0396728515625 2.7295590080461873 L 4.024658203125 2.7929135002336873 L 3.9744873046875 2.7929135002336873 L 3.8756103515625 3.2217465080461873 L 3.933837890625 3.2217465080461873 L 3.9195556640625 3.2847347892961873 L 3.73974609375 3.2847347892961873 L 3.7540283203125 3.2217465080461873 L 3.8023681640625 3.2217465080461873 L 3.8997802734375 2.7991390861711873 L 3.6068115234375 3.2847347892961873 L 3.522216796875 3.2847347892961873 L 3.4482421875 2.8002377189836873 L 3.350830078125 3.2217465080461873 L 3.4105224609375 3.2217465080461873 L 3.396240234375 3.2847347892961873 L 3.216064453125 3.2847347892961873 L 3.2303466796875 3.2217465080461873 M 4.3656005859375 3.2217465080461873 L 4.412109375 3.2217465080461873 L 4.3985595703125 3.0965023674211873 L 4.1883544921875 3.0965023674211873 L 4.118408203125 3.2217465080461873 L 4.168212890625 3.2217465080461873 L 4.154296875 3.2847347892961873 L 3.97412109375 3.2847347892961873 L 3.9884033203125 3.2217465080461873 L 4.036376953125 3.2217465080461873 L 4.314697265625 2.7295590080461873 L 4.4329833984375 2.7295590080461873 L 4.4908447265625 3.2217465080461873 L 4.5457763671875 3.2217465080461873 L 4.531494140625 3.2847347892961873 L 4.351318359375 3.2847347892961873 L 4.3656005859375 3.2217465080461873 M 4.2235107421875 3.0335140861711873 L 4.3916015625 3.0335140861711873 L 4.3641357421875 2.7815609611711873 L 4.2235107421875 3.0335140861711873 M 4.714599609375 2.7295590080461873 L 4.9405517578125 2.7295590080461873 Q 4.972412109375 2.7295590080461873 4.9984130859375 2.7390804924211873 Q 5.0244140625 2.7486019767961873 5.04290771484375 2.7658138908586873 Q 5.0614013671875 2.7830258049211873 5.07147216796875 2.8070126213274373 Q 5.08154296875 2.8309994377336873 5.08154296875 2.8595638908586873 Q 5.08154296875 2.8892269767961873 5.07147216796875 2.9143124260149373 Q 5.0614013671875 2.9393978752336873 5.04437255859375 2.9589901603899373 Q 5.02734375 2.9785824455461873 5.00482177734375 2.9926815666399373 Q 4.9822998046875 3.0067806877336873 4.9573974609375 3.0148373283586873 Q 4.9716796875 3.0250912346086873 4.9815673828125 3.0455990471086873 Q 4.991455078125 3.0661068596086873 4.9921875 3.0943051017961873 L 4.994384765625 3.2217465080461873 L 5.0416259765625 3.2217465080461873 L 5.02734375 3.2847347892961873 L 4.9200439453125 3.2847347892961873 L 4.9178466796875 3.1159115471086873 Q 4.9171142578125 3.0701351799211873 4.89697265625 3.0488949455461873 Q 4.8768310546875 3.0276547111711873 4.836181640625 3.0276547111711873 L 4.7764892578125 3.0276547111711873 L 4.732177734375 3.2217465080461873 L 4.7867431640625 3.2217465080461873 L 4.7724609375 3.2847347892961873 L 4.59228515625 3.2847347892961873 L 4.6065673828125 3.2217465080461873 L 4.6556396484375 3.2217465080461873 L 4.7545166015625 2.7929135002336873 L 4.6995849609375 2.7929135002336873 L 4.714599609375 2.7295590080461873 M 4.830322265625 2.7929135002336873 L 4.790771484375 2.9661312736711873 L 4.8775634765625 2.9661312736711873 Q 4.905029296875 2.9661312736711873 4.92828369140625 2.9599056877336873 Q 4.9515380859375 2.9536801017961873 4.9683837890625 2.9408627189836873 Q 4.9852294921875 2.9280453361711873 4.9947509765625 2.9086361564836873 Q 5.0042724609375 2.8892269767961873 5.0042724609375 2.8632260002336873 Q 5.0042724609375 2.8478451408586873 4.9991455078125 2.8348446525774373 Q 4.9940185546875 2.8218441642961873 4.98321533203125 2.8125057853899373 Q 4.972412109375 2.8031674064836873 4.95574951171875 2.7980404533586873 Q 4.9390869140625 2.7929135002336873 4.9163818359375 2.7929135002336873 L 4.830322265625 2.7929135002336873 M 5.220703125 3.2217465080461873 L 5.27197265625 3.2217465080461873 L 5.37158203125 2.7896176017961873 L 5.2371826171875 2.7896176017961873 L 5.2177734375 2.8760433830461873 L 5.1427001953125 2.8760433830461873 L 5.1763916015625 2.7295590080461873 L 5.6715087890625 2.7295590080461873 L 5.637451171875 2.8760433830461873 L 5.562744140625 2.8760433830461873 L 5.5821533203125 2.7896176017961873 L 5.4473876953125 2.7896176017961873 L 5.3485107421875 3.2217465080461873 L 5.4005126953125 3.2217465080461873 L 5.38623046875 3.2847347892961873 L 5.2064208984375 3.2847347892961873 L 5.220703125 3.2217465080461873 M 5.744384765625 2.7295590080461873 L 6.147216796875 2.7295590080461873 L 6.110595703125 2.8881283439836873 L 6.0347900390625 2.8881283439836873 L 6.05712890625 2.7929135002336873 L 5.859375 2.7929135002336873 L 5.8187255859375 2.9705258049211873 L 5.9820556640625 2.9705258049211873 L 5.96630859375 3.0335140861711873 L 5.804443359375 3.0335140861711873 L 5.76123046875 3.2217465080461873 L 5.956787109375 3.2217465080461873 L 5.9791259765625 3.1257992424211873 L 6.0556640625 3.1257992424211873 L 6.01904296875 3.2847347892961873 L 5.621337890625 3.2847347892961873 L 5.6356201171875 3.2217465080461873 L 5.6846923828125 3.2217465080461873 L 5.7835693359375 2.7929135002336873 L 5.7293701171875 2.7929135002336873 L 5.744384765625 2.7295590080461873 M 6.263671875 2.7295590080461873 L 6.4896240234375 2.7295590080461873 Q 6.521484375 2.7295590080461873 6.5474853515625 2.7390804924211873 Q 6.573486328125 2.7486019767961873 6.59197998046875 2.7658138908586873 Q 6.6104736328125 2.7830258049211873 6.62054443359375 2.8070126213274373 Q 6.630615234375 2.8309994377336873 6.630615234375 2.8595638908586873 Q 6.630615234375 2.8892269767961873 6.62054443359375 2.9143124260149373 Q 6.6104736328125 2.9393978752336873 6.59344482421875 2.9589901603899373 Q 6.576416015625 2.9785824455461873 6.55389404296875 2.9926815666399373 Q 6.5313720703125 3.0067806877336873 6.5064697265625 3.0148373283586873 Q 6.520751953125 3.0250912346086873 6.5306396484375 3.0455990471086873 Q 6.54052734375 3.0661068596086873 6.541259765625 3.0943051017961873 L 6.54345703125 3.2217465080461873 L 6.5906982421875 3.2217465080461873 L 6.576416015625 3.2847347892961873 L 6.4691162109375 3.2847347892961873 L 6.4669189453125 3.1159115471086873 Q 6.4661865234375 3.0701351799211873 6.446044921875 3.0488949455461873 Q 6.4259033203125 3.0276547111711873 6.38525390625 3.0276547111711873 L 6.3255615234375 3.0276547111711873 L 6.28125 3.2217465080461873 L 6.3358154296875 3.2217465080461873 L 6.321533203125 3.2847347892961873 L 6.141357421875 3.2847347892961873 L 6.1556396484375 3.2217465080461873 L 6.2047119140625 3.2217465080461873 L 6.3035888671875 2.7929135002336873 L 6.2486572265625 2.7929135002336873 L 6.263671875 2.7295590080461873 M 6.37939453125 2.7929135002336873 L 6.33984375 2.9661312736711873 L 6.4266357421875 2.9661312736711873 Q 6.4541015625 2.9661312736711873 6.47735595703125 2.9599056877336873 Q 6.5006103515625 2.9536801017961873 6.5174560546875 2.9408627189836873 Q 6.5343017578125 2.9280453361711873 6.5438232421875 2.9086361564836873 Q 6.5533447265625 2.8892269767961873 6.5533447265625 2.8632260002336873 Q 6.5533447265625 2.8478451408586873 6.5482177734375 2.8348446525774373 Q 6.5430908203125 2.8218441642961873 6.53228759765625 2.8125057853899373 Q 6.521484375 2.8031674064836873 6.50482177734375 2.7980404533586873 Q 6.4881591796875 2.7929135002336873 6.4654541015625 2.7929135002336873 L 6.37939453125 2.7929135002336873 M 6.8668212890625 3.1030941642961873 L 6.8814697265625 3.0401058830461873 L 7.090576171875 3.0401058830461873 L 7.075927734375 3.1030941642961873 L 6.8668212890625 3.1030941642961873 M 7.8079833984375 2.7295590080461873 L 7.98779296875 2.7295590080461873 L 7.9735107421875 2.7929135002336873 L 7.9237060546875 2.7929135002336873 L 7.8109130859375 3.2847347892961873 L 7.7149658203125 3.2847347892961873 L 7.563720703125 2.8251400627336873 L 7.4725341796875 3.2217465080461873 L 7.5281982421875 3.2217465080461873 L 7.513916015625 3.2847347892961873 L 7.333740234375 3.2847347892961873 L 7.3480224609375 3.2217465080461873 L 7.396728515625 3.2217465080461873 L 7.4959716796875 2.7929135002336873 L 7.4410400390625 2.7929135002336873 L 7.4560546875 2.7295590080461873 L 7.6083984375 2.7295590080461873 L 7.7578125 3.1858578361711873 L 7.847900390625 2.7929135002336873 L 7.793701171875 2.7929135002336873 L 7.8079833984375 2.7295590080461873 M 8.222900390625 3.2960873283586873 Q 8.176025390625 3.2960873283586873 8.13372802734375 3.2781429924211873 Q 8.0914306640625 3.2601986564836873 8.05938720703125 3.2274227775774373 Q 8.02734375 3.1946468986711873 8.00848388671875 3.1483212150774373 Q 7.9896240234375 3.1019955314836873 7.9896240234375 3.0448666252336873 Q 7.9896240234375 2.9968929924211873 8.0009765625 2.9542294182024373 Q 8.0123291015625 2.9115658439836873 8.0328369140625 2.8753109611711873 Q 8.0533447265625 2.8390560783586873 8.08209228515625 2.8101254142961873 Q 8.11083984375 2.7811947502336873 8.14581298828125 2.7610531486711873 Q 8.1807861328125 2.7409115471086873 8.220703125 2.7301083244524373 Q 8.2606201171875 2.7193051017961873 8.3038330078125 2.7193051017961873 Q 8.3507080078125 2.7193051017961873 8.39300537109375 2.7356014885149373 Q 8.435302734375 2.7518978752336873 8.46734619140625 2.7830258049211873 Q 8.4993896484375 2.8141537346086873 8.51824951171875 2.8593807853899373 Q 8.537109375 2.9046078361711873 8.537109375 2.9621029533586873 Q 8.537109375 3.0111752189836873 8.526123046875 3.0551205314836873 Q 8.51513671875 3.0990658439836873 8.49517822265625 3.1360531486711873 Q 8.4752197265625 3.1730404533586873 8.44683837890625 3.2027035392961873 Q 8.41845703125 3.2323666252336873 8.38348388671875 3.2530575432024373 Q 8.3485107421875 3.2737484611711873 8.307861328125 3.2849178947649373 Q 8.2672119140625 3.2960873283586873 8.222900390625 3.2960873283586873 M 8.2313232421875 3.2217465080461873 Q 8.2628173828125 3.2217465080461873 8.291748046875 3.2129574455461873 Q 8.3206787109375 3.2041683830461873 8.3455810546875 3.1878719963274373 Q 8.3704833984375 3.1715756096086873 8.39080810546875 3.1486874260149373 Q 8.4111328125 3.1257992424211873 8.4254150390625 3.0976010002336873 Q 8.439697265625 3.0694027580461873 8.44757080078125 3.0368099846086873 Q 8.4554443359375 3.0042172111711873 8.4554443359375 2.9683285392961873 Q 8.4554443359375 2.9284115471086873 8.44354248046875 2.8961849846086873 Q 8.431640625 2.8639584221086873 8.410400390625 2.8410702385149373 Q 8.38916015625 2.8181820549211873 8.35986328125 2.8059139885149373 Q 8.33056640625 2.7936459221086873 8.2957763671875 2.7936459221086873 Q 8.2503662109375 2.7936459221086873 8.209716796875 2.8119564689836873 Q 8.1690673828125 2.8302670158586873 8.1383056640625 2.8630428947649373 Q 8.1075439453125 2.8958187736711873 8.089599609375 2.9406796135149373 Q 8.0716552734375 2.9855404533586873 8.0716552734375 3.0386410392961873 Q 8.0716552734375 3.0778256096086873 8.08355712890625 3.1113339103899373 Q 8.095458984375 3.1448422111711873 8.11669921875 3.1693783439836873 Q 8.137939453125 3.1939144767961873 8.167236328125 3.2078304924211873 Q 8.196533203125 3.2217465080461873 8.2313232421875 3.2217465080461873 M 8.6689453125 3.2217465080461873 L 8.72021484375 3.2217465080461873 L 8.81982421875 2.7896176017961873 L 8.6854248046875 2.7896176017961873 L 8.666015625 2.8760433830461873 L 8.5909423828125 2.8760433830461873 L 8.6246337890625 2.7295590080461873 L 9.1197509765625 2.7295590080461873 L 9.085693359375 2.8760433830461873 L 9.010986328125 2.8760433830461873 L 9.0303955078125 2.7896176017961873 L 8.8956298828125 2.7896176017961873 L 8.7967529296875 3.2217465080461873 L 8.8487548828125 3.2217465080461873 L 8.83447265625 3.2847347892961873 L 8.6546630859375 3.2847347892961873 L 8.6689453125 3.2217465080461873 M 9.7569580078125 2.7295590080461873 L 9.9371337890625 2.7295590080461873 L 9.922119140625 2.7929135002336873 L 9.8719482421875 2.7929135002336873 L 9.7738037109375 3.2217465080461873 L 9.828369140625 3.2217465080461873 L 9.8140869140625 3.2847347892961873 L 9.6339111328125 3.2847347892961873 L 9.648193359375 3.2217465080461873 L 9.697265625 3.2217465080461873 L 9.743408203125 3.0221615471086873 L 9.4295654296875 3.0221615471086873 L 9.3837890625 3.2217465080461873 L 9.4383544921875 3.2217465080461873 L 9.424072265625 3.2847347892961873 L 9.243896484375 3.2847347892961873 L 9.2581787109375 3.2217465080461873 L 9.3072509765625 3.2217465080461873 L 9.4061279296875 2.7929135002336873 L 9.3519287109375 2.7929135002336873 L 9.366943359375 2.7295590080461873 L 9.547119140625 2.7295590080461873 L 9.5321044921875 2.7929135002336873 L 9.48193359375 2.7929135002336873 L 9.4434814453125 2.9606381096086873 L 9.7576904296875 2.9606381096086873 L 9.796142578125 2.7929135002336873 L 9.741943359375 2.7929135002336873 L 9.7569580078125 2.7295590080461873 M 10.2626953125 3.2217465080461873 L 10.3092041015625 3.2217465080461873 L 10.295654296875 3.0965023674211873 L 10.08544921875 3.0965023674211873 L 10.0155029296875 3.2217465080461873 L 10.0653076171875 3.2217465080461873 L 10.0513916015625 3.2847347892961873 L 9.8712158203125 3.2847347892961873 L 9.885498046875 3.2217465080461873 L 9.9334716796875 3.2217465080461873 L 10.2117919921875 2.7295590080461873 L 10.330078125 2.7295590080461873 L 10.387939453125 3.2217465080461873 L 10.44287109375 3.2217465080461873 L 10.4285888671875 3.2847347892961873 L 10.2484130859375 3.2847347892961873 L 10.2626953125 3.2217465080461873 M 10.12060546875 3.0335140861711873 L 10.2886962890625 3.0335140861711873 L 10.26123046875 2.7815609611711873 L 10.12060546875 3.0335140861711873 M 10.6116943359375 2.7295590080461873 L 10.837646484375 2.7295590080461873 Q 10.8695068359375 2.7295590080461873 10.8955078125 2.7390804924211873 Q 10.9215087890625 2.7486019767961873 10.94000244140625 2.7658138908586873 Q 10.95849609375 2.7830258049211873 10.96856689453125 2.8070126213274373 Q 10.9786376953125 2.8309994377336873 10.9786376953125 2.8595638908586873 Q 10.9786376953125 2.8892269767961873 10.96856689453125 2.9143124260149373 Q 10.95849609375 2.9393978752336873 10.94146728515625 2.9589901603899373 Q 10.9244384765625 2.9785824455461873 10.90191650390625 2.9926815666399373 Q 10.87939453125 3.0067806877336873 10.8544921875 3.0148373283586873 Q 10.8687744140625 3.0250912346086873 10.878662109375 3.0455990471086873 Q 10.8885498046875 3.0661068596086873 10.8892822265625 3.0943051017961873 L 10.8914794921875 3.2217465080461873 L 10.938720703125 3.2217465080461873 L 10.9244384765625 3.2847347892961873 L 10.817138671875 3.2847347892961873 L 10.81494140625 3.1159115471086873 Q 10.814208984375 3.0701351799211873 10.7940673828125 3.0488949455461873 Q 10.77392578125 3.0276547111711873 10.7332763671875 3.0276547111711873 L 10.673583984375 3.0276547111711873 L 10.6292724609375 3.2217465080461873 L 10.683837890625 3.2217465080461873 L 10.6695556640625 3.2847347892961873 L 10.4893798828125 3.2847347892961873 L 10.503662109375 3.2217465080461873 L 10.552734375 3.2217465080461873 L 10.651611328125 2.7929135002336873 L 10.5966796875 2.7929135002336873 L 10.6116943359375 2.7295590080461873 M 10.7274169921875 2.7929135002336873 L 10.6878662109375 2.9661312736711873 L 10.774658203125 2.9661312736711873 Q 10.8021240234375 2.9661312736711873 10.82537841796875 2.9599056877336873 Q 10.8486328125 2.9536801017961873 10.865478515625 2.9408627189836873 Q 10.88232421875 2.9280453361711873 10.891845703125 2.9086361564836873 Q 10.9013671875 2.8892269767961873 10.9013671875 2.8632260002336873 Q 10.9013671875 2.8478451408586873 10.896240234375 2.8348446525774373 Q 10.89111328125 2.8218441642961873 10.88031005859375 2.8125057853899373 Q 10.8695068359375 2.8031674064836873 10.85284423828125 2.7980404533586873 Q 10.836181640625 2.7929135002336873 10.8134765625 2.7929135002336873 L 10.7274169921875 2.7929135002336873 M 11.14599609375 2.7295590080461873 L 11.3470458984375 2.7295590080461873 Q 11.395751953125 2.7295590080461873 11.43511962890625 2.7480526603899373 Q 11.4744873046875 2.7665463127336873 11.50213623046875 2.7985897697649373 Q 11.52978515625 2.8306332267961873 11.54461669921875 2.8734799064836873 Q 11.5594482421875 2.9163265861711873 11.5594482421875 2.9646664299211873 Q 11.5594482421875 3.0126400627336873 11.54791259765625 3.0549374260149373 Q 11.536376953125 3.0972347892961873 11.51531982421875 3.1329403557024373 Q 11.4942626953125 3.1686459221086873 11.4642333984375 3.1966610588274373 Q 11.4342041015625 3.2246761955461873 11.3975830078125 3.2442684807024373 Q 11.3609619140625 3.2638607658586873 11.3184814453125 3.2742977775774373 Q 11.2760009765625 3.2847347892961873 11.2294921875 3.2847347892961873 L 11.017822265625 3.2847347892961873 L 11.0321044921875 3.2217465080461873 L 11.0804443359375 3.2217465080461873 L 11.1793212890625 2.7929135002336873 L 11.13134765625 2.7929135002336873 L 11.14599609375 2.7295590080461873 M 11.255126953125 2.7929135002336873 L 11.156982421875 3.2217465080461873 L 11.237548828125 3.2217465080461873 Q 11.2679443359375 3.2217465080461873 11.297607421875 3.2136898674211873 Q 11.3272705078125 3.2056332267961873 11.35418701171875 3.1902523674211873 Q 11.381103515625 3.1748715080461873 11.40399169921875 3.1528988517961873 Q 11.4268798828125 3.1309261955461873 11.44354248046875 3.1030941642961873 Q 11.460205078125 3.0752621330461873 11.4697265625 3.0419369377336873 Q 11.479248046875 3.0086117424211873 11.479248046875 2.9705258049211873 Q 11.479248046875 2.9350033439836873 11.46917724609375 2.9029598869524373 Q 11.4591064453125 2.8709164299211873 11.44061279296875 2.8463802971086873 Q 11.422119140625 2.8218441642961873 11.39593505859375 2.8073788322649373 Q 11.3697509765625 2.7929135002336873 11.3375244140625 2.7929135002336873 L 11.255126953125 2.7929135002336873 M 11.71435546875 2.7295590080461873 L 12.1171875 2.7295590080461873 L 12.08056640625 2.8881283439836873 L 12.0047607421875 2.8881283439836873 L 12.027099609375 2.7929135002336873 L 11.829345703125 2.7929135002336873 L 11.7886962890625 2.9705258049211873 L 11.9520263671875 2.9705258049211873 L 11.936279296875 3.0335140861711873 L 11.7744140625 3.0335140861711873 L 11.731201171875 3.2217465080461873 L 11.9267578125 3.2217465080461873 L 11.9490966796875 3.1257992424211873 L 12.025634765625 3.1257992424211873 L 11.989013671875 3.2847347892961873 L 11.59130859375 3.2847347892961873 L 11.6055908203125 3.2217465080461873 L 11.6546630859375 3.2217465080461873 L 11.7535400390625 2.7929135002336873 L 11.6993408203125 2.7929135002336873 L 11.71435546875 2.7295590080461873 M 12.233642578125 2.7295590080461873 L 12.4595947265625 2.7295590080461873 Q 12.491455078125 2.7295590080461873 12.5174560546875 2.7390804924211873 Q 12.54345703125 2.7486019767961873 12.56195068359375 2.7658138908586873 Q 12.5804443359375 2.7830258049211873 12.59051513671875 2.8070126213274373 Q 12.6005859375 2.8309994377336873 12.6005859375 2.8595638908586873 Q 12.6005859375 2.8892269767961873 12.59051513671875 2.9143124260149373 Q 12.5804443359375 2.9393978752336873 12.56341552734375 2.9589901603899373 Q 12.54638671875 2.9785824455461873 12.52386474609375 2.9926815666399373 Q 12.5013427734375 3.0067806877336873 12.4764404296875 3.0148373283586873 Q 12.49072265625 3.0250912346086873 12.5006103515625 3.0455990471086873 Q 12.510498046875 3.0661068596086873 12.51123046875 3.0943051017961873 L 12.513427734375 3.2217465080461873 L 12.5606689453125 3.2217465080461873 L 12.54638671875 3.2847347892961873 L 12.4390869140625 3.2847347892961873 L 12.4368896484375 3.1159115471086873 Q 12.4361572265625 3.0701351799211873 12.416015625 3.0488949455461873 Q 12.3958740234375 3.0276547111711873 12.355224609375 3.0276547111711873 L 12.2955322265625 3.0276547111711873 L 12.251220703125 3.2217465080461873 L 12.3057861328125 3.2217465080461873 L 12.29150390625 3.2847347892961873 L 12.111328125 3.2847347892961873 L 12.1256103515625 3.2217465080461873 L 12.1746826171875 3.2217465080461873 L 12.2735595703125 2.7929135002336873 L 12.2186279296875 2.7929135002336873 L 12.233642578125 2.7295590080461873 M 12.349365234375 2.7929135002336873 L 12.309814453125 2.9661312736711873 L 12.3966064453125 2.9661312736711873 Q 12.424072265625 2.9661312736711873 12.44732666015625 2.9599056877336873 Q 12.4705810546875 2.9536801017961873 12.4874267578125 2.9408627189836873 Q 12.5042724609375 2.9280453361711873 12.5137939453125 2.9086361564836873 Q 12.5233154296875 2.8892269767961873 12.5233154296875 2.8632260002336873 Q 12.5233154296875 2.8478451408586873 12.5181884765625 2.8348446525774373 Q 12.5130615234375 2.8218441642961873 12.50225830078125 2.8125057853899373 Q 12.491455078125 2.8031674064836873 12.47479248046875 2.7980404533586873 Q 12.4581298828125 2.7929135002336873 12.4354248046875 2.7929135002336873 L 12.349365234375 2.7929135002336873" fill="#ee7913" fill-rule="nonzero"></path></g><g clip-path="url(#SvgjsClipPath1204)"><g clip-path="url(#SvgjsClipPath12021ccccb25-c3a9-4fbd-b103-ada21a619da8)"><path d=" M -2.071354033941809 3.3905218776071866 L -1.9737796929772151 3.282875346607544 C -1.6429199658867932 2.9348519355466367 -1.3338708188849249 2.5667260468390136 -1.0483972335066083 2.180600049646297 C -0.5825078094711862 1.5392065545918794 -0.6915860103694444 0.6468016358132862 -1.298245898737818 0.13650529958200952 C -1.9049057871061916 -0.3737910366492646 -2.802806383027761 -0.32841358833977163 -3.354928751534011 0.24044444414398813 L -3.354928751534011 0.24044444414398813 C -3.6066946807009836 0.4909742143904072 -3.761490331458997 0.8226473162306074 -3.791809994304521 1.1765286055268402 C -3.822212467405645 1.5335072565206216 -3.726664457354698 1.8898634711628464 -3.521749398989615 2.183747609032258 C -3.2358665421206907 2.5705056838870384 -2.9263983781825984 2.939260547709994 -2.595107915764624 3.2879114416251003 L -2.4994221104316283 3.3930399251159518 C -2.472406453953241 3.422964229072706 -2.439653013773863 3.447154678355516 -2.403106793221419 3.4641747672385232 C -2.3659538858174294 3.48023594786114 -2.3258629772955626 3.4883827634966007 -2.2853880721867186 3.4880962185717745 L -2.2853880721867186 3.4880962185717745 C -2.244962741402384 3.488526733493466 -2.204884763361536 3.4805968661805755 -2.167669351152018 3.4648042791157128 C -2.131123130599574 3.4477841902327055 -2.098369690420196 3.4235937409498955 -2.071354033941809 3.3936694369931413 Z M -1.6974239788904302 3.534680097483899 L -1.7949983198549808 3.641697116606351 C -1.9195563205129815 3.781335755425906 -2.098275643169672 3.8604861614805452 -2.2853880721866755 3.858878714237206 L -2.2853880721866755 3.858878714237206 C -2.4723533227504264 3.861294139190865 -2.6511198656536865 3.7822508348737482 -2.7751483126411998 3.642326628483535 L -2.8714636298514087 3.5371981449926624 C -3.213740383931869 3.177116764901583 -3.5331094372854808 2.7959343463827944 -3.8276921713044105 2.39589311164558 L -3.8276921713044105 2.39589311164558 C -4.082655752895892 2.031363116361611 -4.201620024396762 1.588922960555016 -4.1638515137243015 1.1456825235444745 L -4.1638515137243015 1.1456825235444745 C -4.126105576535044 0.704170514076309 -3.9329259922615645 0.29037359857134437 -3.618694228077038 -0.022062008644617048 L -3.618694228077038 -0.022062008644617048 C -2.880587166899312 -0.7548038531766181 -1.6895594655969113 -0.7548038531766181 -0.9514524044192281 -0.022062008644619713 L -0.9514524044192281 -0.022062008644619713 C -0.30388747887060985 0.6267494194376106 -0.2157562338090515 1.6468951265804976 -0.7424544611918558 2.397152135399959 C -1.0371709700456324 2.794538486105199 -1.3560987014907697 3.173383424842215 -1.6974239788904302 3.5315325380979434 Z" fill="#588932" transform="matrix(1,0,0,1,0,0)" fill-rule="evenodd"></path></g><g clip-path="url(#SvgjsClipPath12021ccccb25-c3a9-4fbd-b103-ada21a619da8)"><path d=" M -1.9737796929772151 2.5079462257855614 C -1.8825004707845858 2.4141489560841185 -1.7931097842234687 2.3190926626282957 -1.7100142164342738 2.2246658810496607 C -1.6269186486450784 2.1302390994710247 -1.548229663996207 2.035812317892394 -1.473947262487659 1.9313133462787058 C -1.3441894216857415 1.7516880216275623 -1.2795701123201222 1.5331814909891646 -1.2907593062251017 1.3118736591228704 C -1.30044683737442 1.092270371461341 -1.385351291425756 0.8826763919575851 -1.5312328433120825 0.7182439589318634 L -1.536268938329577 0.7125783520371445 C -1.878898284968003 0.3013469960161268 -2.489079835388146 0.24344860845898553 -2.9029392237110176 0.5828989053358222 L -2.9029392237109746 0.5828989053358222 C -3.0836160633837943 0.7288091223207069 -3.205826636370123 0.9348020808095083 -3.2472822205344283 1.1633088561058207 C -3.2889121758723743 1.3947650866109809 -3.246969103566193 1.6334836364387886 -3.1289339876225144 1.836886564700073 L -3.1289339876225144 1.836886564700073 C -3.060334473848436 1.9562921980469923 -2.9831194539358377 2.070536764293692 -2.897903128693437 2.178711514014715 C -2.8097714658867474 2.292023651909081 -2.7159741961853068 2.3996701829087224 -2.6190293670979266 2.501651107013645 C -2.577895199075691 2.5459798618541987 -2.5282159654658374 2.581526210040529 -2.4729826115896 2.606150078627329 C -2.4173514271532968 2.629419944834668 -2.357650666440267 2.641402893221515 -2.2973487978533482 2.6414027437500183 C -2.2365660556485913 2.6419540163850845 -2.176261528303213 2.6306201867776258 -2.119826448485542 2.608038614258903 C -2.064468997332102 2.584111190357044 -2.0144025608010416 2.54944981122015 -1.9725206692229165 2.506057690153974 Z M -1.4292519192071222 2.470175513154106 C -1.5199016295225807 2.5740449728906034 -1.6130693873468505 2.672248825732381 -1.7062371451710776 2.767934631065396 C -1.7830260096301283 2.848526843845441 -1.8753141531591102 2.9127645307565713 -1.9775567642403677 2.9567881942226615 C -2.292773085928519 3.0890957366284617 -2.657019097005847 3.0115271512232944 -2.890978498044345 2.762269024170677 C -2.9986250290439704 2.648956886276319 -3.101864976903272 2.5318676771188136 -3.1950327347275422 2.4122604204525446 C -3.290509098590036 2.289352687559724 -3.3773787834619444 2.1599946822419662 -3.4550211400074162 2.0251106159801493 C -3.6163389678049165 1.745591709863269 -3.6734334919158202 1.4179672726800192 -3.6161761805682264 1.1003576683867347 C -3.5103263614600673 0.5532940596082627 -3.081980912899911 0.12584494295768123 -2.534696777155551 0.02114130874414477 C -1.9874126414112334 -0.08356232546939163 -1.4315362883681257 0.1555904515478611 -1.1312294853212799 0.624950228583268 C -0.8309226822743478 1.094310005618675 -0.8467349563057449 1.699241855183163 -1.171152049558846 2.15227201517271 C -1.2498410342077175 2.2586595224179735 -1.336084161382895 2.3650470296632307 -1.4292519192071222 2.4701755131541114 Z" fill="#ee7913" transform="matrix(1,0,0,1,0,0)" fill-rule="evenodd"></path></g><g clip-path="url(#SvgjsClipPath12021ccccb25-c3a9-4fbd-b103-ada21a619da8)"><path d=" M -2.2853880721867186 1.6939873685777445 C -2.130292418092877 1.693359784682008 -1.9906959472920978 1.5997904486533832 -1.9311799484778938 1.4565671905369137 C -1.8716639496636467 1.31334393242045 -1.90383483079858 1.1483971843110716 -2.0128094293630867 1.0380359925448357 L -2.0128094293630867 1.0380359925448357 C -2.135903105408224 0.9149182474688307 -2.326346510835899 0.889834578604108 -2.4771212605194535 0.9768805842147648 C -2.6278960102030084 1.0639265898254218 -2.701401392520867 1.2413944457456028 -2.656331554450131 1.4095572892372386 C -2.6112617163794383 1.5777201327288741 -2.458856324957772 1.6946409511497789 -2.2847585603095477 1.6946168804549393 Z M -1.7490439528201027 1.845699730980747 C -1.890786261495725 1.9879350578707935 -2.0833262339993475 2.0678836079477048 -2.284129048432334 2.0678836079477048 C -2.4849318628653205 2.0678836079477048 -2.6774718353689435 1.9879350578707935 -2.8192141440445657 1.845699730980747 L -2.819214144044609 1.845699730980747 C -3.1147334822130075 1.5501803928123488 -3.1147334822130075 1.0710488779246423 -2.819214144044609 0.7755295397562412 C -2.5236948058761675 0.4800102015878427 -2.044563290988501 0.48001020158784 -1.7490439528200596 0.7755295397562385 L -1.7490439528201027 0.7755295397562385 C -1.6068086259300345 0.9172718484318714 -1.5268600758531363 1.1098118209354861 -1.5268600758531363 1.3106146353684913 C -1.5268600758531363 1.5114174498014992 -1.6068086259300345 1.7039574223051168 -1.7490439528201027 1.845699730980747 Z" fill="#93b023" transform="matrix(1,0,0,1,0,0)" fill-rule="evenodd"></path></g></g></g><defs><clipPath id="SvgjsClipPath1204"><path d=" M -4.171405656250608 -0.5741439249410212 h 3.7714056562506078 v 4.43302263917823 h -3.7714056562506078 Z"></path></clipPath><clipPath id="SvgjsClipPath12021ccccb25-c3a9-4fbd-b103-ada21a619da8"><path d=" M -4.171405656250608 -0.5741439249410212 L -0.3999999999999999 -0.5741439249410212 L -0.3999999999999999 3.8588787142372087 L -4.171405656250607 3.8588787142372087 Z"></path></clipPath></defs></svg>